<svg id="Laag_1" data-name="Laag 1" xmlns="http://www.w3.org/2000/svg" viewBox="0 0 512 445.61"><defs><style>.cls-1{fill:#b2b2b2;}.cls-2{fill:#3c3c3b;}.cls-3{fill:#1d1d1b;}.cls-4{fill:#9d9d9c;}.cls-5{fill:#575756;}.cls-6{fill:#c6c6c6;}.cls-7{fill:#706f6f;}</style></defs><rect class="cls-1" x="32.16" y="206.27" width="447.67" height="34.39"/><rect class="cls-2" width="44.43" height="170.93"/><rect class="cls-2" x="82.59" width="44.43" height="170.93"/><rect class="cls-2" y="274.68" width="44.43" height="170.93"/><rect class="cls-2" x="78.34" y="274.68" width="44.43" height="170.93"/><rect class="cls-2" x="387.04" width="44.43" height="170.93"/><rect class="cls-2" x="467.57" width="44.43" height="170.93"/><rect class="cls-2" x="387.04" y="274.68" width="44.43" height="170.93"/><rect class="cls-2" x="467.57" y="274.68" width="44.43" height="170.93"/><rect class="cls-3" x="479.84" y="170.93" width="19.9" height="103.75"/><rect class="cls-3" x="400.06" y="171.29" width="19.9" height="103.75"/><rect class="cls-4" x="232.63" y="131.15" width="47.01" height="58.49"/><rect class="cls-3" x="12.27" y="171.29" width="19.9" height="103.75"/><rect class="cls-3" x="92.78" y="171.29" width="19.9" height="103.75"/><rect class="cls-5" x="193.75" y="97.84" width="124.42" height="35.1"/><rect class="cls-6" x="148.52" y="189.19" width="214.68" height="67.23" rx="16.4"/><rect class="cls-5" x="193.92" y="348.4" width="124.42" height="35.1"/><rect class="cls-4" x="221.03" y="256.42" width="69.17" height="59.08"/><polygon class="cls-7" points="290.2 315.5 221.03 315.5 232.63 348.4 279.64 348.4 290.2 315.5"/><rect class="cls-5" x="202.71" y="206.65" width="106.3" height="32.31" rx="16.16"/></svg>